<svg width="20" height="20" viewBox="0 0 20 20" fill="none" xmlns="http://www.w3.org/2000/svg">
<path d="M10.5673 8.19936C10.3478 8.42417 10.3478 8.78473 10.5673 9.00954C11.4741 9.93849 11.4741 11.4486 10.5673 12.3775L5.80538 17.2556C4.89855 18.1845 3.42443 18.1845 2.5176 17.2556L1.80124 16.5217C0.89441 15.5928 0.89441 14.0827 1.80124 13.1538L6.56315 8.27571C6.78261 8.0509 6.78261 7.69035 6.56315 7.46553C6.34369 7.24072 5.99172 7.24072 5.77226 7.46553L1.01035 12.3436C0.360249 13.0095 0 13.8961 0 14.8377C0 15.7794 0.356108 16.666 1.01035 17.3319L1.72671 18.0657C2.39752 18.7529 3.2795 19.0965 4.16149 19.0965C5.04348 19.0965 5.92547 18.7529 6.59627 18.0657L11.3582 13.1877C12.6998 11.8134 12.6998 9.5737 11.3582 8.19936C11.1429 7.97455 10.7867 7.97455 10.5673 8.19936Z" fill="#00E6A0"/>
<path d="M18.9855 1.79003L18.2692 1.0562C16.9275 -0.318133 14.7412 -0.318133 13.3996 1.0562L8.63768 5.93425C7.29607 7.30859 7.29607 9.54825 8.63768 10.9226C8.85714 11.1474 9.20911 11.1474 9.42857 10.9226C9.64803 10.6978 9.64803 10.3372 9.42857 10.1124C8.52174 9.18346 8.52174 7.67338 9.42857 6.74443L14.1905 1.86638C15.0973 0.937435 16.5714 0.937435 17.4783 1.86638L18.1946 2.60021C19.1014 3.52916 19.1014 5.03924 18.1946 5.96819L13.4327 10.8462C13.2133 11.0711 13.2133 11.4316 13.4327 11.6564C13.5404 11.7667 13.6853 11.8261 13.8261 11.8261C13.9669 11.8261 14.1118 11.7709 14.2195 11.6564L18.9814 6.77837C19.6315 6.11241 19.9917 5.22588 19.9917 4.2842C19.9917 3.34252 19.6356 2.45599 18.9855 1.79003Z" fill="#00E6A0"/>
</svg>
